HIERARCHY
ROOT Hips
{
  OFFSET -31.5692 30.0904 122.763
  CHANNELS 6 Xposition Yposition Zposition Zrotation Xrotation Yrotation
  JOINT LeftUpLeg
  {
    OFFSET 8.64259 1.95398 -2.38835
    CHANNELS 3 Zrotation Xrotation Yrotation
    JOINT LeftLeg
    {
      OFFSET 43.7702 0 0
      CHANNELS 3 Zrotation Xrotation Yrotation
      JOINT LeftFoot
      {
        OFFSET 40.6238 0 0
        CHANNELS 3 Zrotation Xrotation Yrotation
        JOINT LeftToeBase
        {
          OFFSET 12.7242 0 0
          CHANNELS 3 Zrotation Xrotation Yrotation
          End Site
          {
            OFFSET 0 0 0
          }
        }
      }
    }
  }
  JOINT RightUpLeg
  {
    OFFSET -8.2249 1.95398 -2.59336
    CHANNELS 3 Zrotation Xrotation Yrotation
    JOINT RightLeg
    {
      OFFSET 43.5653 0 0
      CHANNELS 3 Zrotation Xrotation Yrotation
      JOINT RightFoot
      {
        OFFSET 40.6238 0 0
        CHANNELS 3 Zrotation Xrotation Yrotation
        JOINT RightToeBase
        {
          OFFSET 12.7242 0 0
          CHANNELS 3 Zrotation Xrotation Yrotation
          End Site
          {
            OFFSET 0 0 0
          }
        }
      }
    }
  }
  JOINT Spine
  {
    OFFSET 0.165834 0.87714 6.61349
    CHANNELS 3 Zrotation Xrotation Yrotation
    JOINT Spine1
    {
      OFFSET 7.38963 1.71661e-005 0
      CHANNELS 3 Zrotation Xrotation Yrotation
      JOINT Spine2
      {
        OFFSET 11.9445 1.14441e-005 0
        CHANNELS 3 Zrotation Xrotation Yrotation
        JOINT Spine3
        {
          OFFSET 14.7254 4.19617e-005 0
          CHANNELS 3 Zrotation Xrotation Yrotation
          JOINT Spine4
          {
            OFFSET 10.9679 0 0
            CHANNELS 3 Zrotation Xrotation Yrotation
            JOINT RightShoulder
            {
              OFFSET 2.46616 -1.6653 3.69651
              CHANNELS 3 Zrotation Xrotation Yrotation
              JOINT RightArm
              {
                OFFSET 13.0012 0 0
                CHANNELS 3 Zrotation Xrotation Yrotation
                JOINT RightForeArm
                {
                  OFFSET 28.7848 1.62311e-005 0
                  CHANNELS 3 Zrotation Xrotation Yrotation
                  JOINT RightHand
                  {
                    OFFSET 26.5688 1.62095e-005 0
                    CHANNELS 3 Zrotation Xrotation Yrotation
                    End Site
                    {
                      OFFSET 0 0 0
                    }
                  }
                }
              }
            }
            JOINT LeftShoulder
            {
              OFFSET 2.38034 -1.29275 -3.7523
              CHANNELS 3 Zrotation Xrotation Yrotation
              JOINT LeftArm
              {
                OFFSET 16.3182 6.07031e-005 0
                CHANNELS 3 Zrotation Xrotation Yrotation
                JOINT LeftForeArm
                {
                  OFFSET 27.0901 0 0
                  CHANNELS 3 Zrotation Xrotation Yrotation
                  JOINT LeftHand
                  {
                    OFFSET 24.5451 1.51738e-005 0
                    CHANNELS 3 Zrotation Xrotation Yrotation
                    End Site
                    {
                      OFFSET 0 0 0
                    }
                  }
                }
              }
            }
            JOINT Neck
            {
              OFFSET 5.0226 -0.0266342 0
              CHANNELS 3 Zrotation Xrotation Yrotation
              JOINT Head
              {
                OFFSET 6.69364 2.86102e-005 0
                CHANNELS 3 Zrotation Xrotation Yrotation
                End Site
                {
                  OFFSET 0 0 0
                }
              }
            }
          }
        }
      }
    }
  }
}
MOTION
Frames:	6
Frame Time:	0.0416667
-48.1393 55.5012 38.5602 61.6945 43.5367 107.292 -32.7587 60.5366 -24.3087 -125.246 51.2649 4.48455 58.8702 0.0883397 10.0655 4.67875 2.7323 -25.9965 44.1872 55.3135 -166.348 -123.544 -16.9636 -3.67805 83.033 -17.2593 -8.22398 16.7181 1.86277 12.0632 0.509804 12.8121 -90.0023 1.24915 1.01665 0.0284732 -10.4214 1.01692 -0.0163116 -32.9595 0.961084 0.332732 -12.9468 0.961091 0.33273 90.1473 -17.3904 -112.373 11.3096 13.8792 -44.1168 -1.52604 6.36367 -17.9041 -12.6858 2.76557 -28.1495 -91.4275 -28.8914 70.1772 0.32332 -10.8092 -73.385 0.374976 14.7299 0.0444579 -4.69738 1.12107 -35.3295 17.4191 -2.36252 -3.28436 -8.59755 -1.31722 -0.477295 
-48.3082 55.4805 38.8194 61.2808 43.8277 106.972 -34.0146 60.2731 -23.9117 -124.996 50.8481 4.41879 59.5736 0.751235 10.2022 4.6697 2.11522 -24.8648 45.0537 56.8358 -165.956 -122.819 -15.4812 -3.63752 86.1165 -18.8658 -6.5239 19.2609 1.07301 11.6498 0.461367 12.6608 -90.0118 1.55189 0.916412 0.00314495 -10.1187 0.915674 -0.0372037 -32.6563 0.873101 0.27844 -12.6437 0.873101 0.278458 89.8188 -17.8484 -112.895 9.18204 13.1864 -43.6279 -0.714305 5.4272 -17.0293 -12.9173 2.63656 -27.0537 -92.0165 -30.0677 69.5217 0.0293077 -10.37 -73.2761 0.563673 14.3441 -0.00793358 -5.0485 1.20758 -34.4509 20.2439 -2.22912 -2.34382 -10.7372 -1.3365 -1.24539 
-48.6285 55.5697 39.0354 60.2606 43.8692 107.136 -36.1561 60.332 -22.9573 -124.537 51.373 4.32751 61.2222 2.41801 11.4118 8.62995 2.18329 -23.0628 46.5788 59.0695 -165.833 -121.108 -12.1177 -2.8906 91.8892 -21.2996 -2.58764 20.5484 0.447074 12.2704 0.394695 12.3754 -89.9436 2.12228 0.81001 0.127053 -9.5484 0.814818 0.0912792 -32.0853 0.734362 0.364631 -12.0726 0.73438 0.364634 89.884 -18.3245 -112.465 9.44052 11.9386 -44.8884 -0.27456 3.23928 -15.8503 -12.3564 2.372 -26.6386 -92.2804 -29.3901 68.7515 -1.16104 -9.54886 -72.125 0.609914 15.4269 0.0994039 -8.45253 2.37179 -36.4812 22.9827 -2.57446 -2.81629 -12.7909 -1.48414 -0.475904 
-48.9643 55.7527 39.285 59.6539 44.3303 107.262 -37.7121 59.8424 -22.0399 -124.024 52.9828 4.31799 61.1997 2.81469 13.0895 8.74 1.29935 -21.2436 46.2361 59.1212 -165.172 -120.268 -10.751 -2.77624 93.1842 -22.0712 -2.37023 19.7902 0.393731 13.4099 0.371234 12.1301 -89.9422 2.6132 0.764106 0.124593 -9.05754 0.768853 0.090835 -31.5942 0.691329 0.348472 -11.5816 0.691325 0.348475 89.3265 -19.6504 -113.015 7.5276 12.2094 -44.8404 -0.123512 -0.37569 -14.318 -14.809 2.10573 -22.22 -92.7523 -29.4055 67.8661 -2.55513 -8.75677 -71.7293 1.06751 17.8035 0.0140267 -9.88176 2.92491 -35.8931 25.5246 -3.04416 -3.33998 -13.7284 -1.80076 0.988073 
-49.1505 56.4011 39.3599 58.9989 44.2859 108.397 -38.0664 60.2987 -21.4472 -122.148 52.0827 3.6245 61.5276 2.87614 11.1308 7.4039 1.59501 -22.4181 47.0077 59.2618 -165.845 -119.092 -12.4643 -2.50956 92.0254 -22.1552 -4.08405 18.7975 0.716687 13.4625 0.448217 11.8523 -90.0514 3.16933 0.875151 -0.0944445 -8.50134 0.870156 -0.132882 -31.0388 0.863073 0.172963 -11.0261 0.863071 0.172957 88.5102 -20.6453 -114.313 4.9956 12.8795 -43.4537 -0.169202 -6.94448 -13.5014 -12.7731 1.33521 -20.6429 -93.4182 -30.0165 66.8754 -4.3171 -8.26386 -70.8617 1.99083 21.0219 0.0054842 -10.4336 3.29789 -36.2687 26.4719 -3.28924 -3.12056 -13.4221 -2.12489 1.46565 
-49.4092 57.8272 39.4219 57.2286 44.1485 109.613 -39.4565 60.6224 -20.3137 -118.954 52.9365 2.17389 61.3328 2.92974 11.4155 5.01002 1.59524 -23.7464 46.7424 60.2542 -165.777 -116.581 -11.1548 -1.51746 92.0991 -20.56 -0.860758 17.6442 1.85689 10.9853 0.425612 11.5748 -90.0781 3.72453 0.819037 -0.152633 -7.94616 0.811546 -0.188534 -30.4834 0.827044 0.100611 -10.4707 0.827042 0.100591 88.3131 -20.8206 -114.655 3.6941 12.7901 -42.4702 0.146811 -8.0874 -13.4104 -10.3745 1.04546 -21.9213 -93.6254 -30.5913 66.7364 -4.91201 -8.14421 -70.7679 2.07542 24.245 0.000531337 -10.071 3.3945 -36.9655 27.9356 -3.17522 -3.14477 -13.3264 -1.95033 1.35532 
